<mxfile host="app.diagrams.net" agent="Mozilla/5.0 (Windows NT 10.0; Win64; x64) AppleWebKit/537.36 (KHTML, like Gecko) Chrome/133.0.0.0 Safari/537.36" version="26.0.16">
  <diagram name="第 1 页" id="F9RkDmCc5yB2FBg8CPDV">
    <mxGraphModel dx="988" dy="527" grid="1" gridSize="10" guides="1" tooltips="1" connect="1" arrows="1" fold="1" page="1" pageScale="1" pageWidth="827" pageHeight="1169" math="0" shadow="0">
      <root>
        <mxCell id="0" />
        <mxCell id="1" parent="0" />
        <mxCell id="eP3LRgcPVJUznO_JSdUk-1" value="" style="rounded=0;whiteSpace=wrap;html=1;" vertex="1" parent="1">
          <mxGeometry x="140" y="80" width="560" height="440" as="geometry" />
        </mxCell>
        <mxCell id="eP3LRgcPVJUznO_JSdUk-2" value="user_console頁面 也就是水族箱管理頁面" style="text;html=1;align=center;verticalAlign=middle;whiteSpace=wrap;rounded=0;" vertex="1" parent="1">
          <mxGeometry x="50" y="30" width="170" height="30" as="geometry" />
        </mxCell>
        <mxCell id="eP3LRgcPVJUznO_JSdUk-4" value="header" style="rounded=0;whiteSpace=wrap;html=1;" vertex="1" parent="1">
          <mxGeometry x="140" y="80" width="560" height="40" as="geometry" />
        </mxCell>
        <mxCell id="eP3LRgcPVJUznO_JSdUk-5" value="logo" style="text;html=1;align=center;verticalAlign=middle;whiteSpace=wrap;rounded=0;" vertex="1" parent="1">
          <mxGeometry x="150" y="85" width="60" height="30" as="geometry" />
        </mxCell>
        <mxCell id="eP3LRgcPVJUznO_JSdUk-6" value="" style="endArrow=none;dashed=1;html=1;dashPattern=1 3;strokeWidth=2;rounded=0;" edge="1" parent="1" source="eP3LRgcPVJUznO_JSdUk-5" target="eP3LRgcPVJUznO_JSdUk-7">
          <mxGeometry width="50" height="50" relative="1" as="geometry">
            <mxPoint x="440" y="360" as="sourcePoint" />
            <mxPoint x="90" y="110" as="targetPoint" />
          </mxGeometry>
        </mxCell>
        <mxCell id="eP3LRgcPVJUznO_JSdUk-7" value="老樣子" style="text;html=1;align=center;verticalAlign=middle;whiteSpace=wrap;rounded=0;" vertex="1" parent="1">
          <mxGeometry x="60" y="100" width="60" height="30" as="geometry" />
        </mxCell>
        <mxCell id="eP3LRgcPVJUznO_JSdUk-11" value="&lt;font style=&quot;font-size: 100px;&quot;&gt;+&lt;/font&gt;" style="ellipse;whiteSpace=wrap;html=1;aspect=fixed;" vertex="1" parent="1">
          <mxGeometry x="280" y="160" width="100" height="100" as="geometry" />
        </mxCell>
        <mxCell id="eP3LRgcPVJUznO_JSdUk-13" value="這個加號會把使用者引導到/add_aqur.html&lt;div&gt;需要一個route&lt;/div&gt;" style="text;html=1;align=center;verticalAlign=middle;whiteSpace=wrap;rounded=0;" vertex="1" parent="1">
          <mxGeometry x="380" y="250" width="140" height="50" as="geometry" />
        </mxCell>
        <mxCell id="eP3LRgcPVJUznO_JSdUk-14" value="使用者名稱🔻" style="text;html=1;align=center;verticalAlign=middle;whiteSpace=wrap;rounded=0;" vertex="1" parent="1">
          <mxGeometry x="590" y="130" width="80" height="30" as="geometry" />
        </mxCell>
        <mxCell id="eP3LRgcPVJUznO_JSdUk-15" value="顯示電子郵件及帳號相關資料&lt;div&gt;可能會有設定頁面&lt;/div&gt;&lt;div&gt;看東西有沒有多到需要整合再說&lt;/div&gt;" style="text;html=1;align=center;verticalAlign=middle;whiteSpace=wrap;rounded=0;" vertex="1" parent="1">
          <mxGeometry x="532.5" y="170" width="167.5" height="30" as="geometry" />
        </mxCell>
        <mxCell id="eP3LRgcPVJUznO_JSdUk-17" value="如果有設定好的水族箱會顯示在這" style="ellipse;whiteSpace=wrap;html=1;aspect=fixed;" vertex="1" parent="1">
          <mxGeometry x="160" y="160" width="100" height="100" as="geometry" />
        </mxCell>
        <mxCell id="eP3LRgcPVJUznO_JSdUk-18" value="" style="endArrow=none;dashed=1;html=1;dashPattern=1 3;strokeWidth=2;rounded=0;" edge="1" parent="1" source="eP3LRgcPVJUznO_JSdUk-13" target="eP3LRgcPVJUznO_JSdUk-11">
          <mxGeometry width="50" height="50" relative="1" as="geometry">
            <mxPoint x="450" y="320" as="sourcePoint" />
            <mxPoint x="500" y="270" as="targetPoint" />
          </mxGeometry>
        </mxCell>
        <mxCell id="eP3LRgcPVJUznO_JSdUk-20" value="" style="endArrow=none;dashed=1;html=1;dashPattern=1 3;strokeWidth=2;rounded=0;" edge="1" parent="1" source="eP3LRgcPVJUznO_JSdUk-21" target="eP3LRgcPVJUznO_JSdUk-17">
          <mxGeometry width="50" height="50" relative="1" as="geometry">
            <mxPoint x="450" y="320" as="sourcePoint" />
            <mxPoint x="500" y="270" as="targetPoint" />
          </mxGeometry>
        </mxCell>
        <mxCell id="eP3LRgcPVJUznO_JSdUk-21" value="點下去會帶到該水族箱的管理頁面&lt;div&gt;aqur_console&lt;/div&gt;&lt;div&gt;&lt;br&gt;&lt;/div&gt;&lt;div&gt;我的預想是透過URL查詢參數&amp;nbsp;&lt;/div&gt;&lt;div&gt;例如?user=使用者Email&lt;span style=&quot;background-color: transparent; color: light-dark(rgb(0, 0, 0), rgb(255, 255, 255));&quot;&gt;&amp;amp;aqur_name這樣 以電子郵件擁有者去查詢名下的水族箱 有多個水族箱的話也能確定是哪一個水族箱&lt;/span&gt;&lt;/div&gt;" style="text;html=1;align=center;verticalAlign=middle;whiteSpace=wrap;rounded=0;" vertex="1" parent="1">
          <mxGeometry x="150" y="290" width="240" height="100" as="geometry" />
        </mxCell>
      </root>
    </mxGraphModel>
  </diagram>
</mxfile>
